<svg data-name="Layer 1" version="1.1" viewBox="0 0 95.84 122.88" xmlns="http://www.w3.org/2000/svg">
 <title>ballot-box-voting</title>
 <path d="m72.27 0-5.2695 0.13086h-1.1992c-4.58-0.05-10.261-0.13039-11.211 5.5996a2.07 2.07 0 0 0 0 0.34961v2a1.7 1.7 0 0 0 0 0.24023 5.18 5.18 0 0 0-4 2.7187l-0.68945 3.7617h0.07031v0.56836a1.53 1.53 0 0 0 0.14844 0.63086c-4.06 1-4.1797 3.76-4.1797 7l0.0098 0.06055c-0.06 1.38-5.1994-1.7004-9.3594 3.0996a6.54 6.54 0 0 0-1.4707 6h-5.5996a2.15 2.15 0 0 0-2.1602 2.1602v17.369h-16.35a1.71 1.71 0 0 0-1.5293 0.92969l-9.4805 18v50.521a1.74 1.74 0 0 0 1.7402 1.6797h87.65a1.73 1.73 0 0 0 1.7285-1.7305l-0.14844-50.379a1.86 1.86 0 0 0-0.19141-0.89063l-9.3301-18a1.74 1.74 0 0 0-1.5996-1h-16.48v-2.6895a13.3 13.3 0 0 0 3.75-1.2715 161.08 161.08 0 0 0 16.432-9.4688c2.2-0.29 8.78-0.82992 10-1.6699a4.68 4.68 0 0 0 2.2891-4.2109v-17.85a8.44 8.44 0 0 0-1.5195-4.7598c-1.71-2.45-8.7396-3.4304-11.1-4.9004-3.37-2-6.291-3.79-10.791-4zm-1.4082 3.1992c3.6038-0.045469 4.9062 0.155 10.389 3.5 1.84 1.11 8.9495 2.3012 10.189 4.0313a5.38 5.38 0 0 1 1 3.0801v17.74a1.87 1.87 0 0 1-1 1.6797c-0.85 0.58-7.12 0.97898-9 1.209a1.53 1.53 0 0 0-0.69922 0.25977l0.0293-3.5098c-8.58 6.1-13.769 9.13-17.939 10l-0.38086 0.07031h-2.3301c-2.27-0.89-2.35-3.4402-1-5.1602a4.78 4.78 0 0 1 1-0.92969h0.80078a20 20 0 0 1 3.7207-0.48047c2-0.01 1.95-2.3887 0-2.3887h-26.521l-0.13867-0.07031h-0.24024l-0.05078-0.05078v-0.04883a3.35 3.35 0 0 1-0.20898-0.36133c-1.67-3.34 1.86-5.3398 5-5.3398h11.779a1.5 1.5 0 0 0 0-3h-5.8496a1.68 1.68 0 0 0 0.05078-0.40039v-2c0.46-2.56 4.1181-2.3291 7.3281-2.1191 0.94 0.06 1.8311 0.10938 2.6211 0.10938a1.5 1.5 0 0 0 0-3c-0.78 0-1.5797-0.04938-2.4297-0.10938-1.17-0.12-2.3498-0.12109-3.5098-0.12109v-2.3281c0.47-2.55 4.1298-2.3113 7.3398-2.1113 0.94 0.06 1.8291 0.11133 2.6191 0.11133a1.5 1.5 0 0 0 0-3c-0.77932 3.4e-5 -1.4897-0.061327-2.4297-0.11133-0.94-0.05-1.8691-0.12891-2.8691-0.12891v-2c0.52-3.1 4.7291-3 8.1191-3 1.9525 0.0375 3.4101-0.00633 4.6113-0.021484zm-40.021 32.381h6.7598a9.72 9.72 0 0 0 5.7012 1.5801h13.488c-4.41 4.21-2.0896 9.9004 3.1504 10.9l-0.01953 0.04883v11.641h-29.08zm4.6406 5.7891a1.7402 1.7402 0 0 0 0 3.4805h13.23a1.7402 1.7402 0 0 0 0-3.4805zm6.5195 8.1504a1.7402 1.7402 0 1 0 0 3.4805h6.7109a1.7402 1.7402 0 0 0 0-3.4805zm-29.641 4.7812h15.01v5.4492h-2.9395a1.7402 1.7402 0 0 0 0 3.4805h42.801a1.7402 1.7402 0 1 0 0-3.4805h-3.8301v-5.4492h15.4l7.5898 14.639h-81.772zm-8.8789 18.129h84.02l0.14062 47h-84.16zm23.992 16.812c-8.02e-4 0.01909 5e-3 0.0376 0.0039 0.05664 0.01066 0.0075 0.02079 0.01577 0.03125 0.02344 0.0076-0.0248 0.01582-0.04941 0.02344-0.07422-0.0195-0.0023-0.0391-0.0036-0.05859-0.0059z"/>
 <path d="m45.383 105.96-11.891-7.3438 11.884 17.532 11.897-17.532-11.897 7.3438zm0.17673-30.352-11.886 20.646 11.886 7.3565 11.891-7.3489z" stroke-width="1.2384"/>
</svg>
