<svg fill="#FFFFFF" xmlns="http://www.w3.org/2000/svg"  viewBox="0 0 48 48" width="48px" height="48px"><path d="M 24.003906 0 A 1.0001 1.0001 0 0 0 23.15625 0.46289062 L 9.15625 22.462891 A 1.0001 1.0001 0 0 0 9.5039062 23.869141 L 23.378906 31.798828 A 1.0001 1.0001 0 0 0 24.613281 31.802734 L 38.496094 23.869141 A 1.0001 1.0001 0 0 0 38.84375 22.462891 L 24.84375 0.46289062 A 1.0001 1.0001 0 0 0 24.003906 0 z M 23 4.4355469 L 23 16.332031 L 12.724609 20.583984 L 23 4.4355469 z M 25 4.4355469 L 35.275391 20.583984 L 25 16.332031 L 25 4.4355469 z M 23 18.496094 L 23 29.275391 L 12.058594 23.023438 L 23 18.496094 z M 25 18.496094 L 35.943359 23.023438 L 25 29.275391 L 25 18.496094 z M 38.007812 26.998047 A 1.0001 1.0001 0 0 0 37.503906 27.130859 L 24 34.847656 L 10.496094 27.130859 A 1.0001 1.0001 0 0 0 10.019531 27 A 1.0001 1.0001 0 0 0 9.1953125 28.59375 L 23.128906 47.503906 A 1.0001 1.0001 0 0 0 24.869141 47.505859 L 38.804688 28.59375 A 1.0001 1.0001 0 0 0 38.007812 26.998047 z M 13.613281 31.216797 L 23 36.582031 L 23 43.957031 L 13.613281 31.216797 z M 34.386719 31.216797 L 25 43.957031 L 25 36.582031 L 34.386719 31.216797 z"/></svg>